<?xml version="1.0" encoding="UTF-8" standalone="no"?>
<!DOCTYPE svg PUBLIC "-//W3C//DTD SVG 1.1//EN"
 "http://www.w3.org/Graphics/SVG/1.1/DTD/svg11.dtd">
<!-- Generated by graphviz version 9.0.0 (20231125.0833)
 -->
<!-- Title: snakemake_dag Pages: 1 -->
<svg width="923pt" height="805pt"
 viewBox="0.00 0.00 923.00 804.75" xmlns="http://www.w3.org/2000/svg" xmlns:xlink="http://www.w3.org/1999/xlink">
<g id="graph0" class="graph" transform="scale(1 1) rotate(0) translate(4 800.75)">
<title>snakemake_dag</title>
<polygon fill="white" stroke="none" points="-4,4 -4,-800.75 919,-800.75 919,4 -4,4"/>
<!-- 0 -->
<g id="node1" class="node">
<title>0</title>
<text text-anchor="start" x="304.5" y="-175.65" font-family="sans" font-weight="bold" font-size="18.00">build_PharmacoSet</text>
<text text-anchor="start" x="231" y="-146.95" font-family="sans" font-size="10.00"> </text>
<text text-anchor="start" x="233.25" y="-146.95" font-family="sans" font-weight="bold" font-size="14.00">↪ input</text>
<text text-anchor="start" x="286.5" y="-146.95" font-family="sans" font-size="10.00"> </text>
<text text-anchor="start" x="231" y="-123.25" font-family="monospace" font-size="10.00">results/data/gCSI_MultiAssayExperiment.RDS</text>
<text text-anchor="start" x="231" y="-102" font-family="monospace" font-size="10.00">results/data/gCSI_TreatmentResponseExperiment.RDS</text>
<text text-anchor="start" x="231" y="-80.75" font-family="monospace" font-size="10.00">results/data/metadata/sampleMetadata_annotated.tsv</text>
<text text-anchor="start" x="231" y="-59.5" font-family="monospace" font-size="10.00">results/data/metadata/treatmentMetadata_annotated.tsv</text>
<text text-anchor="start" x="480.75" y="-35.45" font-family="sans" font-size="10.00"> </text>
<text text-anchor="start" x="483" y="-35.45" font-family="sans" font-weight="bold" font-size="14.00">output →</text>
<text text-anchor="start" x="546.75" y="-35.45" font-family="sans" font-size="10.00"> </text>
<text text-anchor="start" x="231" y="-11.75" font-family="monospace" font-size="10.00">results/data/gCSI_PharmacoSet.RDS</text>
<polygon fill="#d9d957" stroke="#d9d957" points="225,-163.25 225,-163.25 556,-163.25 556,-163.25 225,-163.25"/>
<polygon fill="#d9d957" stroke="#d9d957" points="225,-51.75 225,-51.75 556,-51.75 556,-51.75 225,-51.75"/>
<polygon fill="none" stroke="#d9d957" stroke-width="2" points="225,-1 225,-197.75 555,-197.75 555,-1 225,-1"/>
</g>
<!-- 1 -->
<g id="node2" class="node">
<title>1</title>
<text text-anchor="start" x="32.88" y="-570.77" font-family="sans" font-weight="bold" font-size="18.00">annotate_treatmentMetadata</text>
<text text-anchor="start" x="7" y="-542.08" font-family="sans" font-size="10.00"> </text>
<text text-anchor="start" x="9.25" y="-542.08" font-family="sans" font-weight="bold" font-size="14.00">↪ input</text>
<text text-anchor="start" x="62.5" y="-542.08" font-family="sans" font-size="10.00"> </text>
<text text-anchor="start" x="7" y="-518.38" font-family="monospace" font-size="10.00">procdata/metadata/treatmentMetadata.tsv</text>
<text text-anchor="start" x="256.75" y="-494.32" font-family="sans" font-size="10.00"> </text>
<text text-anchor="start" x="259" y="-494.32" font-family="sans" font-weight="bold" font-size="14.00">output →</text>
<text text-anchor="start" x="322.75" y="-494.32" font-family="sans" font-size="10.00"> </text>
<text text-anchor="start" x="7" y="-470.62" font-family="monospace" font-size="10.00">results/data/metadata/treatmentMetadata_annotated.tsv</text>
<polygon fill="#57d982" stroke="#57d982" points="1,-558.38 1,-558.38 332,-558.38 332,-558.38 1,-558.38"/>
<polygon fill="#57d982" stroke="#57d982" points="1,-510.62 1,-510.62 332,-510.62 332,-510.62 1,-510.62"/>
<polygon fill="none" stroke="#57d982" stroke-width="2" points="1,-459.88 1,-592.88 331,-592.88 331,-459.88 1,-459.88"/>
</g>
<!-- 1&#45;&gt;0 -->
<g id="edge4" class="edge">
<title>1&#45;&gt;0</title>
<path fill="none" stroke="grey" stroke-width="2" d="M89.09,-459.18C77.2,-445 66.68,-429.15 60,-412.25 31,-338.89 15.97,-300.21 60,-234.75 94.88,-182.89 153.63,-151.03 211.98,-131.47"/>
<polygon fill="grey" stroke="grey" stroke-width="2" points="212.69,-134.91 221.14,-128.52 210.55,-128.25 212.69,-134.91"/>
</g>
<!-- 5 -->
<g id="node6" class="node">
<title>5</title>
<text text-anchor="start" x="102.25" y="-389.15" font-family="sans" font-weight="bold" font-size="18.00">create_treatmentResponseExperiment</text>
<text text-anchor="start" x="76" y="-360.45" font-family="sans" font-size="10.00"> </text>
<text text-anchor="start" x="78.25" y="-360.45" font-family="sans" font-weight="bold" font-size="14.00">↪ input</text>
<text text-anchor="start" x="131.5" y="-360.45" font-family="sans" font-size="10.00"> </text>
<text text-anchor="start" x="76" y="-336.75" font-family="monospace" font-size="10.00">rawdata/TreatmentResponse_and_Metadata/gCSI_GRdata_v1.3.tsv.tar.gz</text>
<text text-anchor="start" x="76" y="-315.5" font-family="monospace" font-size="10.00">results/data/metadata/sampleMetadata_annotated.tsv</text>
<text text-anchor="start" x="76" y="-294.25" font-family="monospace" font-size="10.00">results/data/metadata/treatmentMetadata_annotated.tsv</text>
<text text-anchor="start" x="403.75" y="-270.2" font-family="sans" font-size="10.00"> </text>
<text text-anchor="start" x="406" y="-270.2" font-family="sans" font-weight="bold" font-size="14.00">output →</text>
<text text-anchor="start" x="469.75" y="-270.2" font-family="sans" font-size="10.00"> </text>
<text text-anchor="start" x="76" y="-246.5" font-family="monospace" font-size="10.00">results/data/gCSI_TreatmentResponseExperiment.RDS</text>
<polygon fill="#57add9" stroke="#57add9" points="70,-376.75 70,-376.75 479,-376.75 479,-376.75 70,-376.75"/>
<polygon fill="#57add9" stroke="#57add9" points="70,-286.5 70,-286.5 479,-286.5 479,-286.5 70,-286.5"/>
<polygon fill="none" stroke="#57add9" stroke-width="2" points="70,-235.75 70,-411.25 478,-411.25 478,-235.75 70,-235.75"/>
</g>
<!-- 1&#45;&gt;5 -->
<g id="edge9" class="edge">
<title>1&#45;&gt;5</title>
<path fill="none" stroke="grey" stroke-width="2" d="M201.66,-459.04C207.87,-447.5 214.45,-435.26 221.01,-423.07"/>
<polygon fill="grey" stroke="grey" stroke-width="2" points="223.92,-425.03 225.58,-414.57 217.76,-421.72 223.92,-425.03"/>
</g>
<!-- 2 -->
<g id="node3" class="node">
<title>2</title>
<text text-anchor="start" x="240.75" y="-773.65" font-family="sans" font-weight="bold" font-size="18.00">preprocess_metadata</text>
<text text-anchor="start" x="138" y="-744.95" font-family="sans" font-size="10.00"> </text>
<text text-anchor="start" x="140.25" y="-744.95" font-family="sans" font-weight="bold" font-size="14.00">↪ input</text>
<text text-anchor="start" x="193.5" y="-744.95" font-family="sans" font-size="10.00"> </text>
<text text-anchor="start" x="138" y="-721.25" font-family="monospace" font-size="10.00">rawdata/TreatmentResponse_and_Metadata/gCSI_GRdata_v1.3.tsv.tar.gz</text>
<text text-anchor="start" x="465.75" y="-697.2" font-family="sans" font-size="10.00"> </text>
<text text-anchor="start" x="468" y="-697.2" font-family="sans" font-weight="bold" font-size="14.00">output →</text>
<text text-anchor="start" x="531.75" y="-697.2" font-family="sans" font-size="10.00"> </text>
<text text-anchor="start" x="138" y="-673.5" font-family="monospace" font-size="10.00">procdata/metadata/sampleMetadata.tsv</text>
<text text-anchor="start" x="138" y="-652.25" font-family="monospace" font-size="10.00">procdata/metadata/treatmentMetadata.tsv</text>
<polygon fill="#d98257" stroke="#d98257" points="132,-761.25 132,-761.25 541,-761.25 541,-761.25 132,-761.25"/>
<polygon fill="#d98257" stroke="#d98257" points="132,-713.5 132,-713.5 541,-713.5 541,-713.5 132,-713.5"/>
<polygon fill="none" stroke="#d98257" stroke-width="2" points="132,-641.5 132,-795.75 540,-795.75 540,-641.5 132,-641.5"/>
</g>
<!-- 2&#45;&gt;1 -->
<g id="edge5" class="edge">
<title>2&#45;&gt;1</title>
<path fill="none" stroke="grey" stroke-width="2" d="M267.1,-640.52C256.13,-628.24 244.8,-615.56 233.85,-603.31"/>
<polygon fill="grey" stroke="grey" stroke-width="2" points="236.47,-600.98 227.2,-595.86 231.25,-605.65 236.47,-600.98"/>
</g>
<!-- 3 -->
<g id="node4" class="node">
<title>3</title>
<text text-anchor="start" x="387.38" y="-581.4" font-family="sans" font-weight="bold" font-size="18.00">annotate_sampleMetadata</text>
<text text-anchor="start" x="357" y="-552.7" font-family="sans" font-size="10.00"> </text>
<text text-anchor="start" x="359.25" y="-552.7" font-family="sans" font-weight="bold" font-size="14.00">↪ input</text>
<text text-anchor="start" x="412.5" y="-552.7" font-family="sans" font-size="10.00"> </text>
<text text-anchor="start" x="357" y="-529" font-family="monospace" font-size="10.00">metadata/rnaseq/E&#45;MTAB&#45;2706.sdrf.txt</text>
<text text-anchor="start" x="357" y="-507.75" font-family="monospace" font-size="10.00">procdata/metadata/sampleMetadata.tsv</text>
<text text-anchor="start" x="588.75" y="-483.7" font-family="sans" font-size="10.00"> </text>
<text text-anchor="start" x="591" y="-483.7" font-family="sans" font-weight="bold" font-size="14.00">output →</text>
<text text-anchor="start" x="654.75" y="-483.7" font-family="sans" font-size="10.00"> </text>
<text text-anchor="start" x="357" y="-460" font-family="monospace" font-size="10.00">results/data/metadata/sampleMetadata_annotated.tsv</text>
<polygon fill="#57d9ad" stroke="#57d9ad" points="351,-569 351,-569 664,-569 664,-569 351,-569"/>
<polygon fill="#57d9ad" stroke="#57d9ad" points="351,-500 351,-500 664,-500 664,-500 351,-500"/>
<polygon fill="none" stroke="#57d9ad" stroke-width="2" points="351,-449.25 351,-603.5 663,-603.5 663,-449.25 351,-449.25"/>
</g>
<!-- 2&#45;&gt;3 -->
<g id="edge6" class="edge">
<title>2&#45;&gt;3</title>
<path fill="none" stroke="grey" stroke-width="2" d="M405.31,-640.52C413.19,-631.74 421.27,-622.76 429.26,-613.87"/>
<polygon fill="grey" stroke="grey" stroke-width="2" points="431.77,-616.31 435.85,-606.53 426.56,-611.63 431.77,-616.31"/>
</g>
<!-- 3&#45;&gt;0 -->
<g id="edge1" class="edge">
<title>3&#45;&gt;0</title>
<path fill="none" stroke="grey" stroke-width="2" d="M513.45,-448.34C515.78,-388.34 513.07,-303.92 488,-234.75 484.96,-226.35 481.22,-218.03 477,-209.87"/>
<polygon fill="grey" stroke="grey" stroke-width="2" points="480.07,-208.2 472.19,-201.12 473.94,-211.57 480.07,-208.2"/>
</g>
<!-- 4 -->
<g id="node5" class="node">
<title>4</title>
<text text-anchor="start" x="592.25" y="-378.52" font-family="sans" font-weight="bold" font-size="18.00">create_MultiAssayExperiment</text>
<text text-anchor="start" x="542" y="-349.82" font-family="sans" font-size="10.00"> </text>
<text text-anchor="start" x="544.25" y="-349.82" font-family="sans" font-weight="bold" font-size="14.00">↪ input</text>
<text text-anchor="start" x="597.5" y="-349.82" font-family="sans" font-size="10.00"> </text>
<text text-anchor="start" x="542" y="-326.12" font-family="monospace" font-size="10.00">results/data/metadata/sampleMetadata_annotated.tsv</text>
<text text-anchor="start" x="542" y="-304.88" font-family="monospace" font-size="10.00">results/data/rnaseq/kallisto_v0.46.1_GRCh38.45/rse_list.RData</text>
<text text-anchor="start" x="839.75" y="-280.82" font-family="sans" font-size="10.00"> </text>
<text text-anchor="start" x="842" y="-280.82" font-family="sans" font-weight="bold" font-size="14.00">output →</text>
<text text-anchor="start" x="905.75" y="-280.82" font-family="sans" font-size="10.00"> </text>
<text text-anchor="start" x="542" y="-257.12" font-family="monospace" font-size="10.00">results/data/gCSI_MultiAssayExperiment.RDS</text>
<polygon fill="#5782d9" stroke="#5782d9" points="536,-366.12 536,-366.12 915,-366.12 915,-366.12 536,-366.12"/>
<polygon fill="#5782d9" stroke="#5782d9" points="536,-297.12 536,-297.12 915,-297.12 915,-297.12 536,-297.12"/>
<polygon fill="none" stroke="#5782d9" stroke-width="2" points="536,-246.38 536,-400.62 914,-400.62 914,-246.38 536,-246.38"/>
</g>
<!-- 3&#45;&gt;4 -->
<g id="edge7" class="edge">
<title>3&#45;&gt;4</title>
<path fill="none" stroke="grey" stroke-width="2" d="M590.66,-448.29C604.22,-435.79 618.34,-422.78 632.1,-410.1"/>
<polygon fill="grey" stroke="grey" stroke-width="2" points="634.35,-412.78 639.34,-403.43 629.61,-407.64 634.35,-412.78"/>
</g>
<!-- 3&#45;&gt;5 -->
<g id="edge8" class="edge">
<title>3&#45;&gt;5</title>
<path fill="none" stroke="grey" stroke-width="2" d="M417.58,-448.29C407.07,-439.22 396.24,-429.89 385.48,-420.61"/>
<polygon fill="grey" stroke="grey" stroke-width="2" points="387.77,-417.96 377.91,-414.08 383.2,-423.26 387.77,-417.96"/>
</g>
<!-- 4&#45;&gt;0 -->
<g id="edge3" class="edge">
<title>4&#45;&gt;0</title>
<path fill="none" stroke="grey" stroke-width="2" d="M608.77,-245.43C589.47,-232.64 569.16,-219.17 549.02,-205.81"/>
<polygon fill="grey" stroke="grey" stroke-width="2" points="550.97,-202.91 540.7,-200.3 547.1,-208.74 550.97,-202.91"/>
</g>
<!-- 5&#45;&gt;0 -->
<g id="edge2" class="edge">
<title>5&#45;&gt;0</title>
<path fill="none" stroke="grey" stroke-width="2" d="M319.68,-235.03C323.99,-226.77 328.41,-218.32 332.81,-209.89"/>
<polygon fill="grey" stroke="grey" stroke-width="2" points="335.87,-211.58 337.4,-201.09 329.67,-208.34 335.87,-211.58"/>
</g>
</g>
</svg>
