<?xml version="1.0" encoding="UTF-8" standalone="no"?>
<!DOCTYPE svg PUBLIC "-//W3C//DTD SVG 1.1//EN"
 "http://www.w3.org/Graphics/SVG/1.1/DTD/svg11.dtd">
<!-- Generated by graphviz version 9.0.0 (20231125.0833)
 -->
<!-- Title: snakemake_dag Pages: 1 -->
<svg width="432pt" height="260pt"
 viewBox="0.00 0.00 431.62 260.00" xmlns="http://www.w3.org/2000/svg" xmlns:xlink="http://www.w3.org/1999/xlink">
<g id="graph0" class="graph" transform="scale(1 1) rotate(0) translate(4 256)">
<title>snakemake_dag</title>
<polygon fill="white" stroke="none" points="-4,4 -4,-256 427.62,-256 427.62,4 -4,4"/>
<!-- 0 -->
<g id="node1" class="node">
<title>0</title>
<path fill="none" stroke="#d88556" stroke-width="2" d="M219.25,-36C219.25,-36 138.75,-36 138.75,-36 132.75,-36 126.75,-30 126.75,-24 126.75,-24 126.75,-12 126.75,-12 126.75,-6 132.75,0 138.75,0 138.75,0 219.25,0 219.25,0 225.25,0 231.25,-6 231.25,-12 231.25,-12 231.25,-24 231.25,-24 231.25,-30 225.25,-36 219.25,-36"/>
<text text-anchor="middle" x="179" y="-15.62" font-family="sans" font-size="10.00">build_PharmacoSet</text>
</g>
<!-- 1 -->
<g id="node2" class="node">
<title>1</title>
<path fill="none" stroke="#afd856" stroke-width="2" d="M142,-180C142,-180 12,-180 12,-180 6,-180 0,-174 0,-168 0,-168 0,-156 0,-156 0,-150 6,-144 12,-144 12,-144 142,-144 142,-144 148,-144 154,-150 154,-156 154,-156 154,-168 154,-168 154,-174 148,-180 142,-180"/>
<text text-anchor="middle" x="77" y="-159.62" font-family="sans" font-size="10.00">annotate_treatmentMetadata</text>
</g>
<!-- 1&#45;&gt;0 -->
<g id="edge1" class="edge">
<title>1&#45;&gt;0</title>
<path fill="none" stroke="grey" stroke-width="2" d="M42.57,-143.14C29.55,-134.44 16.16,-122.66 9,-108 1.98,-93.62 -0.48,-84.89 9,-72 32.76,-39.7 76.09,-26.53 113.05,-21.39"/>
<polygon fill="grey" stroke="grey" stroke-width="2" points="113.29,-24.88 122.81,-20.24 112.47,-17.93 113.29,-24.88"/>
</g>
<!-- 5 -->
<g id="node6" class="node">
<title>5</title>
<path fill="none" stroke="#d8ac56" stroke-width="2" d="M202,-108C202,-108 30,-108 30,-108 24,-108 18,-102 18,-96 18,-96 18,-84 18,-84 18,-78 24,-72 30,-72 30,-72 202,-72 202,-72 208,-72 214,-78 214,-84 214,-84 214,-96 214,-96 214,-102 208,-108 202,-108"/>
<text text-anchor="middle" x="116" y="-87.62" font-family="sans" font-size="10.00">create_treatmentResponseExperiment</text>
</g>
<!-- 1&#45;&gt;5 -->
<g id="edge8" class="edge">
<title>1&#45;&gt;5</title>
<path fill="none" stroke="grey" stroke-width="2" d="M86.84,-143.34C90.74,-136.34 95.32,-128.12 99.69,-120.28"/>
<polygon fill="grey" stroke="grey" stroke-width="2" points="102.74,-121.99 104.55,-111.55 96.63,-118.58 102.74,-121.99"/>
</g>
<!-- 2 -->
<g id="node3" class="node">
<title>2</title>
<path fill="none" stroke="#56d882" stroke-width="2" d="M204.88,-252C204.88,-252 113.12,-252 113.12,-252 107.12,-252 101.12,-246 101.12,-240 101.12,-240 101.12,-228 101.12,-228 101.12,-222 107.12,-216 113.12,-216 113.12,-216 204.88,-216 204.88,-216 210.88,-216 216.88,-222 216.88,-228 216.88,-228 216.88,-240 216.88,-240 216.88,-246 210.88,-252 204.88,-252"/>
<text text-anchor="middle" x="159" y="-231.62" font-family="sans" font-size="10.00">preprocess_metadata</text>
</g>
<!-- 2&#45;&gt;1 -->
<g id="edge5" class="edge">
<title>2&#45;&gt;1</title>
<path fill="none" stroke="grey" stroke-width="2" d="M138.31,-215.34C129.06,-207.44 117.96,-197.96 107.76,-189.26"/>
<polygon fill="grey" stroke="grey" stroke-width="2" points="110.15,-186.7 100.27,-182.87 105.61,-192.02 110.15,-186.7"/>
</g>
<!-- 3 -->
<g id="node4" class="node">
<title>3</title>
<path fill="none" stroke="#56d8a9" stroke-width="2" d="M299.88,-180C299.88,-180 184.12,-180 184.12,-180 178.12,-180 172.12,-174 172.12,-168 172.12,-168 172.12,-156 172.12,-156 172.12,-150 178.12,-144 184.12,-144 184.12,-144 299.88,-144 299.88,-144 305.88,-144 311.88,-150 311.88,-156 311.88,-156 311.88,-168 311.88,-168 311.88,-174 305.88,-180 299.88,-180"/>
<text text-anchor="middle" x="242" y="-159.62" font-family="sans" font-size="10.00">annotate_sampleMetadata</text>
</g>
<!-- 2&#45;&gt;3 -->
<g id="edge6" class="edge">
<title>2&#45;&gt;3</title>
<path fill="none" stroke="grey" stroke-width="2" d="M179.94,-215.34C189.31,-207.44 200.54,-197.96 210.86,-189.26"/>
<polygon fill="grey" stroke="grey" stroke-width="2" points="213.07,-191.98 218.46,-182.85 208.56,-186.62 213.07,-191.98"/>
</g>
<!-- 3&#45;&gt;0 -->
<g id="edge4" class="edge">
<title>3&#45;&gt;0</title>
<path fill="none" stroke="grey" stroke-width="2" d="M240.71,-143.13C238.81,-124.55 234.17,-95.03 223,-72 218.57,-62.87 212.25,-53.97 205.77,-46.16"/>
<polygon fill="grey" stroke="grey" stroke-width="2" points="208.56,-44.02 199.32,-38.84 203.31,-48.66 208.56,-44.02"/>
</g>
<!-- 4 -->
<g id="node5" class="node">
<title>4</title>
<path fill="none" stroke="#80d856" stroke-width="2" d="M411.62,-108C411.62,-108 282.38,-108 282.38,-108 276.38,-108 270.38,-102 270.38,-96 270.38,-96 270.38,-84 270.38,-84 270.38,-78 276.38,-72 282.38,-72 282.38,-72 411.62,-72 411.62,-72 417.62,-72 423.62,-78 423.62,-84 423.62,-84 423.62,-96 423.62,-96 423.62,-102 417.62,-108 411.62,-108"/>
<text text-anchor="middle" x="347" y="-87.62" font-family="sans" font-size="10.00">create_MultiAssayExperiment</text>
</g>
<!-- 3&#45;&gt;4 -->
<g id="edge7" class="edge">
<title>3&#45;&gt;4</title>
<path fill="none" stroke="grey" stroke-width="2" d="M268.77,-143.15C281.23,-134.84 296.27,-124.82 309.82,-115.79"/>
<polygon fill="grey" stroke="grey" stroke-width="2" points="311.38,-118.95 317.76,-110.49 307.5,-113.13 311.38,-118.95"/>
</g>
<!-- 3&#45;&gt;5 -->
<g id="edge9" class="edge">
<title>3&#45;&gt;5</title>
<path fill="none" stroke="grey" stroke-width="2" d="M209.88,-143.15C194.48,-134.6 175.8,-124.22 159.18,-114.99"/>
<polygon fill="grey" stroke="grey" stroke-width="2" points="161.15,-112.08 150.71,-110.28 157.75,-118.2 161.15,-112.08"/>
</g>
<!-- 4&#45;&gt;0 -->
<g id="edge2" class="edge">
<title>4&#45;&gt;0</title>
<path fill="none" stroke="grey" stroke-width="2" d="M304.17,-71.15C282.83,-62.26 256.77,-51.41 233.97,-41.91"/>
<polygon fill="grey" stroke="grey" stroke-width="2" points="235.41,-38.71 224.84,-38.1 232.72,-45.18 235.41,-38.71"/>
</g>
<!-- 5&#45;&gt;0 -->
<g id="edge3" class="edge">
<title>5&#45;&gt;0</title>
<path fill="none" stroke="grey" stroke-width="2" d="M131.9,-71.34C138.71,-63.77 146.82,-54.75 154.38,-46.35"/>
<polygon fill="grey" stroke="grey" stroke-width="2" points="156.78,-48.93 160.86,-39.15 151.57,-44.24 156.78,-48.93"/>
</g>
</g>
</svg>
